<svg xmlns="http://www.w3.org/2000/svg" width="266.86783pt" height="299.99997pt" viewBox="0 0 266.86784 299.99997"><defs><clipPath id="a"><path d="M0 595.276h425.197V0H0Z"/></clipPath><clipPath id="b"><path d="M0 595.276h425.197V0H0Z"/></clipPath><clipPath id="c"><path d="M0 595.276h425.197V0H0Z"/></clipPath><clipPath id="d"><path d="M0 595.276h425.197V0H0Z"/></clipPath></defs><g fill="#203062" clip-path="url(#a)" transform="matrix(3.4565 0 0 3.4565 -601.412 -832.826)"><path d="M192.904 289.252c0-.17-.09-.326-.237-.411l-1.14-.66a21.24 21.24 0 0 0-1 4.076h2.377ZM200.268 288.841l-2.893-1.674a.47.47 0 0 0-.473 0l-2.893 1.674a.474.474 0 0 0-.237.411v3.005h6.733v-3.005a.476.476 0 0 0-.237-.41M207.868 288.841l-2.893-1.674a.47.47 0 0 0-.473 0l-2.893 1.674a.474.474 0 0 0-.237.411v3.005h6.704v-3.159a.475.475 0 0 0-.208-.257M193.575 288.283l2.893-1.674a.475.475 0 0 0 .237-.41v-3.348a.473.473 0 0 0-.237-.41l-1.291-.748a21.686 21.686 0 0 0-3.403 5.822l1.328.768a.47.47 0 0 0 .473 0M197.809 286.61l2.893 1.673a.47.47 0 0 0 .473 0l2.893-1.674a.475.475 0 0 0 .237-.41v-3.348c0-.17-.09-.326-.237-.41l-2.893-1.675a.475.475 0 0 0-.473 0l-2.893 1.674a.476.476 0 0 0-.237.411v3.347c0 .17.09.326.237.411M205.173 282.85v3.349c0 .169.09.326.237.41l2.666 1.543v-7.254l-2.666 1.542a.476.476 0 0 0-.237.41M197.375 281.882l2.893-1.674a.476.476 0 0 0 .237-.411v-2.829a22.388 22.388 0 0 0-4.869 4.182l1.266.732a.47.47 0 0 0 .473 0M201.373 279.798c0 .169.09.326.237.41l2.892 1.674a.47.47 0 0 0 .473 0l2.894-1.673a.475.475 0 0 0 .208-.257v-3.655a.475.475 0 0 0-.208-.257l-2.45-1.418a22.623 22.623 0 0 0-4.046 1.82v.008ZM208.076 273.901c-.593.122-1.177.268-1.752.435l1.752 1.014ZM232.241 289.252v3.005h2.377a21.24 21.24 0 0 0-.999-4.076l-1.141.66a.476.476 0 0 0-.237.41M231.137 288.841l-2.893-1.674a.47.47 0 0 0-.473 0l-2.893 1.674a.474.474 0 0 0-.237.411v3.005h6.733v-3.005c0-.17-.09-.326-.237-.41M223.536 288.841l-2.893-1.674a.47.47 0 0 0-.473 0l-2.893 1.674a.475.475 0 0 0-.208.257v3.16h6.704v-3.006c0-.17-.09-.326-.237-.41M228.44 282.85v3.349c0 .169.09.326.238.41l2.893 1.674a.47.47 0 0 0 .473 0l1.327-.768a21.725 21.725 0 0 0-3.402-5.822l-1.291.747a.474.474 0 0 0-.237.41M227.336 282.44l-2.893-1.674a.47.47 0 0 0-.473 0l-2.893 1.674a.474.474 0 0 0-.237.411v3.347c0 .17.09.326.237.411l2.893 1.674a.475.475 0 0 0 .473 0l2.893-1.674a.474.474 0 0 0 .237-.41v-3.348c0-.17-.09-.326-.237-.41M219.973 286.199v-3.348a.474.474 0 0 0-.237-.41l-2.666-1.543v7.254l2.666-1.542a.477.477 0 0 0 .237-.411M224.877 280.208l2.893 1.674a.47.47 0 0 0 .473 0l1.265-.732a22.36 22.36 0 0 0-4.868-4.182v2.829c0 .17.091.326.237.411M217.277 280.208l2.893 1.674a.47.47 0 0 0 .473 0l2.894-1.674a.475.475 0 0 0 .236-.411v-3.347l-.001-.007a22.553 22.553 0 0 0-4.045-1.821l-2.45 1.417a.475.475 0 0 0-.208.257v3.655a.475.475 0 0 0 .208.257M217.07 273.901v1.45l1.751-1.015a22.634 22.634 0 0 0-1.752-.435"/></g><path fill="#203062" d="M108.534 127.444h19.047v8.321h-19.047zM108.534 116.646h19.047v8.322h-19.047zM108.534 105.849h19.047v8.32h-19.047zM108.534 95.054h19.047v8.32h-19.047z" style="stroke-width:2.64584" transform="matrix(1.30639 0 0 1.30639 -20.884 0)"/><g clip-path="url(#b)" transform="matrix(3.4565 0 0 3.4565 -601.412 -832.826)"><path fill="#203062" d="M208.974 272.79c2.399.516 4.799.516 7.199 0v3.145h-7.2Z"/></g><path fill="#203062" d="M165.346 137.922H56.065v9.419h57.991l4.001-4.011 4.003 4.01H180.05v-9.418z" style="stroke-width:2.64584" transform="matrix(1.30639 0 0 1.30639 -20.884 0)"/><path fill="#203062" d="m125.593 153.952-7.535 7.554-7.536-7.554 7.536-7.551z" style="stroke-width:2.64584" transform="matrix(1.30639 0 0 1.30639 -20.884 0)"/><g clip-path="url(#c)" transform="matrix(3.4565 0 0 3.4565 -601.412 -832.826)"><path fill="#203062" d="M181.016 272.986a4.654 4.654 0 0 1-3.059-1.14 4.68 4.68 0 0 1-1.621-3.219 4.683 4.683 0 0 1 1.125-3.424 4.661 4.661 0 0 1 3.212-1.624 4.66 4.66 0 0 1 3.417 1.127 4.722 4.722 0 0 1 .496 6.642 4.666 4.666 0 0 1-3.57 1.638m.01-6.467-.133.005c-.468.035-.892.25-1.198.606a1.743 1.743 0 0 0-.419 1.277c.035.468.249.894.604 1.2.355.305.806.455 1.274.42.467-.035.892-.25 1.197-.606.306-.356.455-.809.42-1.276a1.748 1.748 0 0 0-.605-1.2 1.738 1.738 0 0 0-1.14-.426"/></g><path fill="#203062" d="m49.13 105.896-6.348 7.387-3.791.283-10.576-9.12-.285-3.802 6.347-7.387zM58.75 94.696l-8.101 9.432L35.996 91.49l8.101-9.43zM68.37 83.497l-8.102 9.432L45.616 80.29l8.101-9.432zM76.235 74.342l-6.347 7.387-14.653-12.64 6.348-7.386 3.791-.286 10.578 9.123zM77.814 98.33l-11.139 12.967-11.253-9.705 11.14-12.968Z" style="stroke-width:2.64584" transform="matrix(1.30639 0 0 1.30639 -20.884 0)"/><g clip-path="url(#d)" transform="matrix(3.4565 0 0 3.4565 -601.412 -832.826)"><path fill="#203062" d="M243.998 272.973a4.668 4.668 0 0 1-3.212-1.625 4.722 4.722 0 0 1 .496-6.642 4.658 4.658 0 0 1 3.417-1.127 4.665 4.665 0 0 1 3.212 1.624 4.688 4.688 0 0 1 1.125 3.424 4.681 4.681 0 0 1-1.621 3.218 4.656 4.656 0 0 1-3.417 1.128m-.793-6.03a1.75 1.75 0 0 0-.604 1.202c-.035.467.114.92.419 1.276a1.74 1.74 0 0 0 1.198.606c.467.035.919-.114 1.274-.42s.569-.732.604-1.2a1.748 1.748 0 0 0-.42-1.277 1.733 1.733 0 0 0-1.197-.605l-.133-.006c-.42 0-.82.149-1.141.425"/></g><path fill="#203062" d="m187.584 105.896 6.345 7.387 3.794.283 10.578-9.12.283-3.802-6.347-7.387zM177.964 94.696l8.102 9.432 14.652-12.639-8.101-9.43zM168.345 83.497l8.101 9.432L191.1 80.29l-8.101-9.432zM160.479 74.342l6.347 7.387 14.653-12.64-6.348-7.386-3.791-.286-10.578 9.123zM158.9 98.33l11.14 12.967 11.25-9.705-11.139-12.968zM109.399 155.891l7.612 7.565v25.297c0 .846-1.223.96-1.381.13zM127.138 155.891l-7.612 7.565v25.297c0 .846 1.223.96 1.379.13zM86.326 178.777l21.032-21.074 8.496 44.59a8.198 8.198 0 0 1-5.996-2.611c-6.773-7.268-13.679-13.647-23.532-20.905M44.873 175.883c-11.62-3.503-12.797-18.045-13.049-20.94l5.382 2.266c1.41.428 2.733-.844 2.392-2.281-.998-4.173-1.982-13.1.767-19.201.54-1.199-.656-2.429-1.834-1.85-5.294 2.607-15.943 7.499-22.225 16.82-.902 1.336.23 3.109 1.818 2.844l5.599-.042s-4.385 10.208 2.328 23.157c3.276 6.318 5.173 13.295 5.493 20.41.09 1.96.196 4.164.119 6.403a3.999 3.999 0 0 0 3.648 4.143c2.226.201 4.398.58 6.327.913 7.003 1.2 13.676 3.955 19.526 7.998 11.988 8.284 22.64 5.194 22.64 5.194l-.735 5.561c-.46 1.546 1.153 2.887 2.588 2.16 10.011-5.091 16.179-15.071 19.417-20.011.72-1.098-.349-2.442-1.603-2.053-6.384 1.976-15.1-.109-19.108-1.622-1.379-.519-2.805.638-2.559 2.095l1.577 5.63c-2.836-.605-17.092-3.558-19.116-15.546-1.447-8.565 6.948-17.841 12.404-22.852-3.123-2.093-6.787-4.157-10.793-6.165-5.82 4.392-14.081 9.057-21.003 6.969M171.986 197.93c-2.027 11.988-16.278 14.94-19.117 15.546l1.577-5.63c.246-1.455-1.177-2.614-2.556-2.095-4.008 1.513-12.726 3.6-19.108 1.624-1.254-.389-2.326.953-1.603 2.053 3.238 4.937 9.403 14.92 19.415 20.008 1.437.73 3.05-.614 2.59-2.159l-.735-5.561s10.652 3.09 22.638-5.194c5.85-4.043 12.522-6.797 19.528-7.999 1.93-.33 4.099-.709 6.327-.91a4.001 4.001 0 0 0 3.648-4.146c-.076-2.236.027-4.442.117-6.403.32-7.114 2.22-14.092 5.495-20.41 6.713-12.949 2.328-23.154 2.328-23.154l5.6.04c1.587.267 2.716-1.505 1.817-2.842-6.284-9.323-16.931-14.213-22.228-16.822-1.175-.58-2.373.654-1.83 1.852 2.746 6.102 1.764 15.026.766 19.199-.344 1.436.98 2.709 2.39 2.283l5.381-2.268c-.248 2.898-1.428 17.44-13.049 20.94-6.922 2.087-15.18-2.575-21.003-6.97-4.003 2.009-7.667 4.072-10.79 6.165 5.454 5.012 13.846 14.288 12.402 22.852" style="stroke-width:2.64584" transform="matrix(1.30639 0 0 1.30639 -20.884 0)"/><path fill="#203062" d="M175.69 149.408h-51.806l27.998 28.096c9.674-7.72 21.323-13.367 33.73-18.196zm.047 7.927a173.35 173.35 0 0 0-6.98 3.217l-5.545-5.562h10.176zm-10.112 4.8c-1.876.975-3.68 1.965-5.408 2.97l-10.08-10.115h8.368zm-28.305-7.145h8.11l11.85 11.893a99.252 99.252 0 0 0-4.874 3.247zM149.926 178.777l-21.032-21.074-8.496 44.59a8.198 8.198 0 0 0 5.996-2.611c6.773-7.268 13.679-13.647 23.532-20.905M149.023 25.297c.772-3.085-.236-6.601-2.752-9.194-2.968-3.054-7.115-3.93-11.28-2.453C134.485 10.142 131.823 0 118.044 0c-13.83 0-16.46 10.218-16.955 13.69-4.201-1.532-8.398-.667-11.393 2.415-2.516 2.59-3.527 6.107-2.752 9.192-3.222 1.815-5.146 5.05-5.111 8.763.037 4.43 2.85 8.31 7.162 9.885l.825.301c1.212 4.546 6.665 7.427 10.973 7.427 1.196 0 2.299-.222 3.201-.69 1.686 1.952 5.15 2.937 8.435 2.937 2.127 0 4.175-.421 5.623-1.252 1.42.8 3.415 1.193 5.495 1.193 3.331 0 6.866-.992 8.549-2.878.9.468 2.005.69 3.199.69 4.323 0 9.794-2.9 10.982-7.472l.696-.256c4.313-1.574 7.126-5.456 7.163-9.885.034-3.715-1.892-6.948-5.112-8.763M91.359 41.246l-1.22-.447c-2.992-1.093-4.94-3.75-4.966-6.768-.026-2.863 1.64-5.223 4.456-6.305l.476-.185a1.208 1.208 0 0 0 .648-1.662l-.224-.458c-1.032-2.1-.39-4.971 1.56-6.98 1.064-1.095 4.038-3.407 8.653-1.283 4.878 2.25 9.919 8.618 12.845 13.952v8.842c-3.617-1.302-6.943-1.794-9.887-1.799h-.032c-5.747 0-10.047 1.842-12.309 3.093m24.675 8.702c-.722.312-1.923.622-3.606.622-2.87 0-5.146-.897-5.908-1.778l-1.103-1.275a1.203 1.203 0 0 0-1.466-.283l-1.495.775c-.228.119-.74.315-1.664.315-2.643 0-6.353-1.736-7.517-4.31 1.971-1.038 5.612-2.509 10.409-2.511 4.061.002 8.21 1.06 12.35 3.143zm2.009-35.44c-2.461 0-4.456 2-4.456 4.465v5.813c-2.638-3.736-5.91-7.268-9.279-9.456l.008-.431c.01-.471.389-11.55 13.727-11.55 13.253 0 13.713 11.087 13.726 11.55l.008.357c-3.36 2.148-6.63 5.644-9.276 9.36v-5.643a4.464 4.464 0 0 0-4.458-4.466m17.25 33.817c-.92 0-1.439-.196-1.664-.315l-1.47-.762a1.204 1.204 0 0 0-1.453.267l-1.104 1.236c-.762.854-3.143 1.76-6.056 1.76-1.63 0-2.794-.281-3.495-.575v-5.29c4.146-2.084 8.3-3.142 12.367-3.142 4.765 0 8.413 1.476 10.392 2.513-1.164 2.575-4.873 4.308-7.516 4.308m10.533-7.525-1.149.42c-2.275-1.25-6.553-3.066-12.26-3.066-2.956 0-6.29.495-9.917 1.8v-9.055c2.94-5.292 7.908-11.52 12.724-13.74 4.617-2.127 7.588.188 8.65 1.284 1.952 2.008 2.595 4.878 1.56 6.98l-.222.457a1.208 1.208 0 0 0 .648 1.662l.474.185c2.818 1.082 4.482 3.442 4.458 6.305-.027 3.019-1.976 5.675-4.966 6.768M50.645 159.308c12.404 4.829 24.053 10.475 33.73 18.196l27.997-28.096H60.567Zm12.224-4.318h10.173l-5.543 5.562a173.339 173.339 0 0 0-6.98-3.217zm14.883 0h8.368l-10.08 10.115a131.04 131.04 0 0 0-5.408-2.97zm6.098 15.14a100.525 100.525 0 0 0-4.873-3.247l11.85-11.893h8.11zM134.888 57.528V54.96H131.3a9.076 9.076 0 0 0-6.419 2.662h.008-13.409a1.21 1.21 0 0 0-.963.479l-6.183 7.34-17.73 1.354-3.022-3.027H80.82V76.18c.524-1.133 1.686-2.514 3.371-2.514h15.603c.963 0 1.883.384 2.566 1.067l.005.005 1.04 1.042 1.048-1.05 3.17-3.172a7.714 7.714 0 0 1-2.252 5.413l-1.966 1.968-2.482-2.487a1.868 1.868 0 0 0-1.328-.553H85.159v3.4l1.924 1.93 20.738.036.283.074c3.125.831 9.258 2.448 17.754.725v.019l24.699-1.747.436-.425a10.343 10.343 0 0 0 3.125-7.033 10.342 10.342 0 0 0 2.633-6.31c1.788-1.905 2.812-4.432 2.812-7.023v-2.016Zm-9.877 5.514h-.063a4.119 4.119 0 0 0-3.284 1.635l-.65.866a2.802 2.802 0 0 1-2.24 1.116h-2.346a2.815 2.815 0 0 1-2.162-1.016l-1.116-1.35c-.98-.026-2.818.215-4.09 1.313l2.759-3c.442-.593 1.172-.868 1.908-.868h14.054a3.591 3.591 0 0 1-2.77 1.304m24.059 14.042-17.352 1.225 4.205-4.443h14.74a6.903 6.903 0 0 1-1.593 3.218m2.685-6.567h-14.01v-3.125h15.55a6.853 6.853 0 0 1-1.54 3.125m2.815-6.514h-18.923l-2.45-2.456.67-.669h22.225a6.846 6.846 0 0 1-1.522 3.125" style="stroke-width:2.64584" transform="matrix(1.30639 0 0 1.30639 -20.884 0)"/></svg>